<svg width="20" height="19" viewBox="0 0 20 19" fill="none" xmlns="http://www.w3.org/2000/svg">
<path d="M19.5 15.5093L14.5 12.6225V18.396L19.5 15.5093ZM10.1632 12.5926L9.70863 12.8009L10.1632 12.5926ZM7.33683 6.426L6.8823 6.63433L7.33683 6.426ZM0.5 4.00928H2.79151V3.00928H0.5V4.00928ZM6.8823 6.63433L9.70863 12.8009L10.6177 12.3842L7.79137 6.21768L6.8823 6.63433ZM14.7085 16.0093H15V15.0093H14.7085V16.0093ZM9.70863 12.8009C10.6047 14.7559 12.5579 16.0093 14.7085 16.0093V15.0093C12.949 15.0093 11.3508 13.9838 10.6177 12.3842L9.70863 12.8009ZM2.79151 4.00928C4.55105 4.00928 6.14918 5.0348 6.8823 6.63433L7.79137 6.21768C6.89533 4.26269 4.94205 3.00928 2.79151 3.00928V4.00928Z" fill="#696969"/>
<path d="M19.5 3.50928L14.5 6.39603V0.622526L19.5 3.50928ZM10.1632 6.426L9.70863 6.21768L10.1632 6.426ZM7.33683 12.5926L6.8823 12.3842L7.33683 12.5926ZM0.5 15.0093H2.79151V16.0093H0.5V15.0093ZM6.8823 12.3842L9.70863 6.21768L10.6177 6.63433L7.79137 12.8009L6.8823 12.3842ZM14.7085 3.00928H15V4.00928H14.7085V3.00928ZM9.70863 6.21768C10.6047 4.26269 12.5579 3.00928 14.7085 3.00928V4.00928C12.949 4.00928 11.3508 5.0348 10.6177 6.63433L9.70863 6.21768ZM2.79151 15.0093C4.55105 15.0093 6.14918 13.9838 6.8823 12.3842L7.79137 12.8009C6.89533 14.7559 4.94205 16.0093 2.79151 16.0093V15.0093Z" fill="#696969"/>
</svg>
